<?xml version="1.0" encoding="UTF-8" standalone="no"?>
<!-- Created with Inkscape (http://www.inkscape.org/) -->

<svg
    width="1080"
    height="1080"
    viewBox="0 0 180 180"
    version="1.1"
    id="svg1"
    xml:space="preserve"
    xmlns="http://www.w3.org/2000/svg"
    xmlns:svg="http://www.w3.org/2000/svg"><defs
      id="defs1"><linearGradient
        id="swatch35"><stop
          style="stop-color:#4ca4ff;stop-opacity:1;"
          offset="0"
          id="stop35" /></linearGradient></defs><g
      id="layer1"><g
        id="path3"
        style="fill:#0e96d5;fill-opacity:1"><path
          id="path29"
          style="color:#000000;fill:#0e96d5;stroke-linecap:square;-inkscape-stroke:none;fill-opacity:1"
          d="m 166.15039,100.91211 -2.83203,3.83203 -1.77734,-2.28711 z m 0,0 -3.04102,0.32617 -4.48632,0.48242 c -0.003,3.7e-4 -1.67202,0.1757 -3.6543,0.61524 -1.76141,0.39058 -4.48295,0.82086 -7.19141,3.14062 -2.65377,2.27294 -3.46363,4.82143 -4.08593,6.41407 -0.70882,1.81401 -1.1211,3.37304 -1.1211,3.37304 l -1.95508,7.31055 14.02344,-2.875 0.30469,-1.125 c 0,0 0.25553,-0.94093 0.67773,-2.02149 0.13296,-0.34025 0.40431,-0.8144 0.63672,-1.21093 0.47166,-0.18652 1.06086,-0.40805 1.48438,-0.50196 1.21602,-0.26964 2.25586,-0.38672 2.25586,-0.38671 l 1.15625,-0.12891 z m -3.05273,4.12891 -4.27539,5.78515 c -0.43902,0.0577 -0.87149,0.0945 -1.89844,0.32227 -0.85606,0.18982 -1.60519,0.49425 -2.11719,0.69922 -0.62138,0.029 -0.78907,0.21574 -0.90039,0.28906 -0.13314,0.0877 -0.19629,0.14262 -0.25781,0.19531 -0.0672,0.0576 -0.13884,0.1095 -0.28711,0.29102 -0.0741,0.0908 -0.17943,0.202 -0.30274,0.51172 -0.0262,0.0659 -0.0331,0.20031 -0.0566,0.29101 -0.25702,0.43096 -0.6144,1.01311 -0.90234,1.75 -0.2667,0.68257 -0.28712,0.82678 -0.42578,1.27344 l -5.82813,1.19531 0.37696,-1.4082 v -0.002 c 0,0 0.36695,-1.37366 0.99023,-2.96875 0.70979,-1.81653 1.08513,-3.25783 3.02344,-4.91797 1.98378,-1.6991 3.57467,-1.88408 5.55078,-2.32227 1.7532,-0.38874 3.23437,-0.54492 3.23437,-0.54492 h 0.004 z m -7.56055,7.06836 c 0.0271,0.011 0.0376,0.006 0.0664,0.0195 0.11956,0.0547 0.39122,0.24071 0.39062,0.24023 -2.6e-4,-2e-4 0.0843,0.093 0.16602,0.18164 -0.21281,-0.18857 -0.37939,-0.33668 -0.62305,-0.4414 z m 7.77492,-8.99191 -4.48697,0.48308 c 0,0 -1.578,0.16567 -3.44677,0.58004 -1.86876,0.41439 -4.02555,0.72153 -6.37167,2.73096 -2.29604,1.96654 -2.88827,3.9619 -3.55432,5.66648 -0.66605,1.70456 -1.05606,3.17173 -1.05606,3.17173 l -1.16538,4.36003 9.8872,-2.02752 c 0,0 0.27836,-1.03072 0.74224,-2.21793 0.4639,-1.18719 1.46362,-2.47853 1.0173,-2.09626 -0.39623,0.33936 1.12945,-0.47984 2.45592,-0.77397 1.32647,-0.29413 2.45593,-0.41961 2.45593,-0.41961 z m -25.29836,-75.310829 1.64063,3.800781 -2.33985,0.367187 z m 0,0 -1.11328,1.527343 -6.43164,8.820313 5.17383,3.773437 c 1.79984,1.312421 3.41036,2.911104 4.73828,4.701172 2.26318,3.050875 4.07644,7.395927 6.59375,12.136719 2.23319,4.205712 4.57956,7.790618 6.11719,11.144531 1.40223,3.058576 1.9815,6.006345 1.57812,7.878906 -0.26397,1.225315 -2.40351,4.629863 -3.19726,9.59375 -0.80249,5.018479 0.60818,9.289689 1.55664,12.408204 0.92802,3.051334 1.44852,5.522414 1.27734,6.832034 -0.10131,0.77501 -0.43906,1.66456 -0.95312,2.41601 -0.52142,0.76219 -1.28963,1.49958 -2.18165,2.0625 -1.77362,1.1193 -4.34862,1.69641 -6.95117,1.52344 -4.80734,-0.3195 -10.00197,-3.03271 -14.85937,-6.77734 -2.92708,-2.25651 -5.91236,-4.9592 -9.29102,-7.644535 -2.78738,-2.215399 -6.00992,-4.5603 -9.96093,-6.203125 -4.00487,-1.665225 -8.76141,-2.560086 -13.652349,-1.447266 -5.282028,1.201797 -9.014721,4.228834 -11.863281,6.324219 -4.442323,3.267737 -8.987212,6.398167 -13.623047,9.384767 l -5.382812,3.4668 6.9375,10.76562 5.380859,-3.4668 c 4.858127,-3.1298 9.62022,-6.40965 14.275391,-9.83398 2.940289,-2.16285 5.416703,-3.76543 7.117187,-4.15234 1.558992,-0.35471 3.767742,-0.0992 5.894532,0.78515 2.18578,0.90885 4.49343,2.48154 6.91016,4.40235 2.94283,2.33892 5.9714,5.08812 9.43945,7.76171 5.86847,4.52406 13.13963,8.83661 21.82812,9.41407 4.87213,0.3238 10.08973,-0.60511 14.63672,-3.47461 2.27694,-1.43692 4.32116,-3.32975 5.91406,-5.65821 1.59805,-2.33596 2.6987,-5.0558 3.08204,-7.98828 0.65103,-4.98048 -0.79217,-9.165827 -1.72071,-12.218747 -0.90867,-2.987728 -1.36454,-5.418668 -1.16601,-6.660156 0.15925,-0.995922 2.06138,-4.227412 3.07226,-8.919922 1.30036,-6.036445 -0.46528,-11.569954 -2.45508,-15.910156 -2.0882,-4.554839 -4.60248,-8.338481 -6.44921,-11.816407 C 156.20344,48.837377 154.24725,43.824999 150.66797,39 c -2.10282,-2.834669 -4.6286,-5.340377 -7.48047,-7.419922 z m 1.74024,4.029296 1.20703,2.796875 c 2.5424,1.853884 4.79717,4.091979 6.67187,6.619141 3.2185,4.338652 5.07664,9.06855 7.3125,13.279297 1.97448,3.718509 4.41737,7.394015 6.35352,11.617187 1.83422,4.000876 3.24786,8.662043 2.19726,13.539063 -0.86485,4.014651 -2.66413,6.324444 -3.11132,9.121094 -0.40537,2.534931 0.33212,5.236656 1.28125,8.357422 0.95737,3.147744 2.11394,6.632464 1.59179,10.626954 -0.30166,2.30764 -1.17135,4.46724 -2.45508,6.34375 -1.2809,1.87238 -2.93927,3.41551 -4.8125,4.59766 -3.7522,2.36792 -8.14975,3.17873 -12.36718,2.89843 -7.57877,-0.5037 -14.18506,-4.32663 -19.77344,-8.63476 -3.31581,-2.55623 -6.31495,-5.28091 -9.39453,-7.72852 -2.53936,-2.01827 -5.08501,-3.80032 -7.81055,-4.93359 -2.70592,-1.125133 -5.581,-1.572622 -8.183593,-0.980471 -2.904109,0.660771 -5.530332,2.594141 -8.519531,4.792971 -4.592354,3.37812 -9.289521,6.61364 -14.082031,9.70117 l -2.205078,1.42187 -2.841797,-4.4121 2.205078,-1.41993 c 4.701552,-3.02893 9.311355,-6.2037 13.816406,-9.517575 2.952869,-2.172114 6.147654,-4.702211 10.460938,-5.683594 3.943318,-0.897211 7.894348,-0.19043 11.363278,1.251953 3.4442,1.43209 6.37022,3.53361 9.06055,5.671876 3.25739,2.58895 6.23892,5.29368 9.33398,7.67969 5.17591,3.99017 10.91759,7.15589 16.91797,7.55468 3.29369,0.21891 6.59048,-0.44095 9.21875,-2.0996 1.30843,-0.82572 2.43844,-1.8882 3.28321,-3.12305 0.84415,-1.23397 1.39497,-2.62956 1.58203,-4.06055 0.33541,-2.56606 -0.45103,-5.27466 -1.40821,-8.421874 -0.96479,-3.17223 -2.08143,-6.710354 -1.4414,-10.71289 0.66178,-4.13858 2.54972,-6.560988 3.16015,-9.394532 0.69339,-3.218819 -0.24114,-6.767161 -1.83789,-10.25 -1.71233,-3.734987 -4.08333,-7.327573 -6.21484,-11.341797 -2.41199,-4.542456 -4.2083,-8.994064 -6.89453,-12.615234 -1.55684,-2.098652 -3.43643,-3.96357 -5.54883,-5.503906 L 135.75,37.328125 Z m -1.32681,-1.388281 -5.31763,7.293812 3.64692,2.658808 c 1.95612,1.42638 3.70072,3.158516 5.1431,5.102878 2.47471,3.336026 4.27957,7.73381 6.74422,12.375439 2.18235,4.109972 4.5413,7.698731 6.16628,11.243185 1.49949,3.27071 2.25563,6.519232 1.70725,9.064925 -0.4372,2.029431 -2.45129,4.942493 -3.17906,9.493731 -0.72126,4.510512 0.54309,8.415903 1.49972,11.561279 0.9426,3.099277 1.59536,5.688347 1.34206,7.626187 -0.14418,1.103 -0.58817,2.24628 -1.26728,3.23899 -0.68309,0.99852 -1.63126,1.89752 -2.73148,2.59184 -2.20095,1.38898 -5.13751,2.00784 -8.08563,1.8119 -5.40387,-0.35915 -10.8722,-3.29821 -15.88886,-7.16562 -3.01107,-2.32126 -5.99483,-5.02558 -9.31286,-7.662723 -2.73886,-2.176834 -5.81175,-4.39928 -9.50936,-5.936739 -3.7369,-1.553806 -8.09162,-2.354873 -12.508756,-1.349856 -4.797661,1.091591 -8.261556,3.869347 -11.162273,6.003099 -4.473692,3.290809 -9.049974,6.444009 -13.718672,9.451779 l -3.79498,2.44404 4.889859,7.58821 3.793217,-2.44406 c 4.825323,-3.10867 9.55461,-6.36699 14.178377,-9.76822 2.964747,-2.18084 5.516365,-3.94769 7.818664,-4.47153 2.080794,-0.47343 4.622374,-0.1221 7.038734,0.88263 2.45566,1.02106 4.882,2.69813 7.36004,4.66767 3.01121,2.39327 6.02591,5.12994 9.41784,7.74485 5.72843,4.4161 12.66701,8.48326 20.80065,9.02384 4.54478,0.30205 9.35154,-0.5672 13.50114,-3.18592 2.07508,-1.30953 3.92678,-3.02781 5.36369,-5.12823 1.44089,-2.10624 2.42614,-4.545 2.76864,-7.16506 0.58659,-4.48749 -0.71326,-8.323179 -1.65622,-11.423514 -0.9289,-3.05425 -1.52523,-5.620477 -1.22328,-7.508689 0.30322,-1.896288 2.15373,-4.666692 3.0916,-9.020277 1.17548,-5.456738 -0.41401,-10.554749 -2.32602,-14.725292 -2.01218,-4.38901 -4.4909,-8.118005 -6.40151,-11.716226 -2.15879,-4.065595 -4.06597,-8.937791 -7.46486,-13.519621 -1.98876,-2.680918 -4.37923,-5.051988 -7.07637,-7.018704 z m -48.585303,-15.764062 3.880859,2.216797 -1.236328,1.677734 z m 0,0 0.945312,2.644531 3.732422,10.433594 1.269531,0.05469 c 11.566248,0.490932 23.670078,3.896973 33.515628,9.882813 l 5.47265,3.326172 6.65039,-10.94336 -5.4707,-3.324219 C 124.22363,19.6242 110.87574,15.576466 97.15625,14.994141 Z m 5.044922,2.882812 2.109375,1.205078 c 13.081986,0.555267 25.809726,4.414582 36.998046,11.216797 l 2.24219,1.361328 -2.72656,4.482422 -2.24219,-1.363281 C 121.16538,28.326876 109.03631,24.879181 97.248047,24.173828 Z m -2.320755,-0.875609 3.303934,9.236755 c 11.878392,0.504181 24.257712,3.98049 34.416612,10.156839 l 3.85757,2.344863 4.68797,-7.713363 -3.85582,-2.343098 C 123.51536,21.404872 110.47661,17.451767 97.075857,16.88297 Z M 78.835937,5.59375 c -1.777663,-0.1056621 -3.624466,0.1113675 -5.433593,0.765625 -2.232525,0.8073704 -4.140546,2.193504 -5.611328,3.916016 -1.464375,1.715008 -2.457464,3.709997 -3.017579,5.779296 -0.95744,3.537178 -0.653734,7.308335 0.857422,10.646485 1.511199,3.33825 4.14433,6.053557 7.433594,7.667969 l 4.154297,2.039062 4.080078,-8.310547 -4.154297,-2.039062 c -1.301761,-0.638921 -2.482178,-1.855015 -3.080078,-3.175782 -0.598052,-1.321098 -0.734296,-3.008658 -0.355469,-4.408203 0.226458,-0.836632 0.633662,-1.614357 1.123047,-2.1875 0.481502,-0.563912 1.127956,-1.009707 1.716797,-1.222656 0.937901,-0.339182 2.480117,-0.287051 3.875,0.275391 1.460924,0.589069 2.99952,1.722395 4.496094,3.183593 2.010721,1.963187 3.736997,4.230801 5.09375,6.691407 l 2.236328,4.052734 8.10547,-4.46875 -2.234376,-4.052734 v -0.002 C 96.323928,17.484787 94.049875,14.500591 91.386719,11.900391 89.385205,9.9461853 86.953862,7.991422 83.884766,6.7539062 82.321245,6.1234683 80.613421,5.6994006 78.835937,5.59375 Z m -0.15039,2.5136719 c 1.471641,0.087472 2.92091,0.4453131 4.257812,0.984375 2.642884,1.0656591 4.81242,2.7843811 6.683594,4.6113281 2.485909,2.427143 4.609525,5.215333 6.287109,8.257812 l 1.017579,1.847657 -3.69336,2.037109 -1.017578,-1.847656 c -1.47704,-2.678761 -3.352487,-5.140554 -5.541016,-7.277344 -1.642363,-1.603542 -3.398914,-2.946373 -5.314453,-3.71875 -1.892718,-0.763177 -3.9382,-0.935559 -5.671875,-0.308594 -1.057029,0.382265 -2.01778,1.06942 -2.777343,1.958985 -0.76146,0.891783 -1.319295,1.984144 -1.638672,3.164062 -0.543096,2.006416 -0.364938,4.212077 0.492187,6.105469 0.857277,1.89373 2.397867,3.482678 4.263672,4.398437 L 77.927734,29.25 76.068359,33.035156 74.175781,32.107422 c -2.763206,-1.356216 -4.97875,-3.641427 -6.248047,-6.445313 -1.269344,-2.803987 -1.526791,-5.978414 -0.722656,-8.949218 0.47062,-1.738669 1.298915,-3.391839 2.501953,-4.800782 1.206414,-1.412895 2.754723,-2.5340666 4.550781,-3.1835934 1.462764,-0.5289979 2.956276,-0.7085554 4.427735,-0.6210937 z m 0.07552,-1.2568706 c -1.624563,-0.096562 -3.294846,0.1018666 -4.930793,0.6934949 -2.014294,0.7284493 -3.742212,1.9826778 -5.080811,3.5503828 -1.333708,1.561977 -2.244138,3.386056 -2.759506,5.290042 -0.880789,3.253994 -0.600693,6.726035 0.789559,9.797107 1.390249,3.071071 3.813971,5.570706 6.840209,7.056021 l 3.024009,1.48437 2.968741,-6.048018 -3.02401,-1.48437 C 75.004685,26.41224 73.644611,25.00958 72.917022,23.40233 c -0.727589,-1.607247 -0.884691,-3.554162 -0.423729,-5.257144 0.272918,-1.008276 0.754988,-1.942823 1.380411,-2.675287 0.620533,-0.726739 1.424674,-1.293354 2.24761,-1.590961 1.335789,-0.483074 3.129079,-0.370673 4.772881,0.292137 1.688233,0.680724 3.33632,1.918 4.90579,3.450372 2.099627,2.04999 3.90078,4.415275 5.317678,6.984961 l 1.6265,2.950316 5.899304,-3.252981 -1.626488,-2.950316 C 95.279602,18.202507 93.081604,15.314865 90.507069,12.801191 88.570723,10.910613 86.270198,9.0746224 83.414205,7.9230339 81.963992,7.3382834 80.385636,6.9471126 78.761072,6.8505513 Z m -10.095056,11.1474957 -0.05859,9.785156 -2.425781,1 C 41.004644,39.148042 23.791365,62.765108 21.630859,89.90625 c -2.160507,27.14117 11.100205,53.18297 34.320313,67.40039 23.220134,14.21728 52.443368,14.18806 75.634768,-0.0762 l 2.23633,-1.37305 2.74804,4.46875 -2.23437,1.37305 v 0.002 c -24.86507,15.29363 -56.229134,15.3254 -81.125003,0.082 C 28.315089,146.53983 14.082015,118.58812 16.398437,89.488281 18.714859,60.388473 37.189694,35.042507 64.183594,23.929687 l 4.173828,-1.716796 -2.466797,-1.027344 z m 0,0 -1.746094,0.720703 -4.173828,1.716797 C 34.442472,32.087551 15.059673,58.677723 12.630859,89.189453 c -2.428812,30.511727 12.501639,59.833407 38.605469,75.816407 26.103811,15.98298 59.006702,15.94968 85.078122,-0.0859 l 5.45508,-3.35351 -6.70703,-10.90821 -5.45508,3.35352 c -21.98703,13.52346 -49.667312,13.55125 -71.681639,0.0723 C 35.911426,140.60483 23.350131,115.93869 25.398437,90.207031 27.446745,64.475366 43.751632,42.103898 67.621094,32.277344 l 5.919922,-2.4375 z m -1.027873,2.467449 -4.173149,1.717214 C 35.816206,33.565133 16.888182,59.533401 14.515562,89.3392 c -2.37262,29.80581 12.208335,58.44213 37.7082,74.05533 25.499865,15.61319 57.633278,15.58004 83.101548,-0.0846 l 3.84524,-2.36426 -4.72851,-7.68869 -3.84523,2.36427 C 108.00757,169.51511 79.555422,169.5435 56.938169,155.69535 34.320915,141.84705 21.409781,116.4932 23.51419,90.056762 25.618599,63.620332 42.377933,40.626477 66.901187,30.53077 l 4.173149,-1.718976 z m 60.984907,42.657551 -0.17383,0.71875 c -0.60963,2.531562 0.21749,5.160483 1.5039,7.328125 1.28642,2.167642 3.01833,3.899054 4.53516,4.685547 1.26777,0.657398 2.64445,0.58427 3.66797,-0.06641 1.02352,-0.650676 1.67405,-1.872359 1.60156,-3.314453 l -0.002,-0.01953 -0.002,-0.02148 c -0.22676,-1.934266 -1.40105,-3.59586 -3.20899,-5.046875 -1.80794,-1.451016 -4.26907,-2.73272 -7.24023,-3.978516 z m 1.06445,1.857422 c 2.4847,1.093332 4.59765,2.208306 6.06836,3.388672 1.64482,1.320102 2.55562,2.677679 2.74023,4.189453 0.045,1.032078 -0.38319,1.76592 -1.01562,2.167968 -0.63711,0.405025 -1.49744,0.484066 -2.41211,0.0098 -1.17201,-0.607698 -2.85378,-2.224914 -4.03125,-4.208984 -1.02371,-1.724966 -1.52555,-3.692255 -1.34961,-5.546875 z m -0.62606,-0.990442 c -1.11009,4.609824 3.02832,9.911249 5.71717,11.305441 2.18244,1.131699 4.47498,-0.302403 4.35,-2.788705 -0.40504,-3.455047 -4.18139,-6.048849 -10.06717,-8.516736 z" /></g></g></svg>
